<svg width="24" height="24" viewBox="0 0 24 24" fill="none" xmlns="http://www.w3.org/2000/svg">
<g clip-path="url(#clip0_2750_767)">
<path d="M7.8335 16.9998C6.91683 16.9998 6.17516 17.7498 6.17516 18.6665C6.17516 19.5832 6.91683 20.3332 7.8335 20.3332C8.75016 20.3332 9.50016 19.5832 9.50016 18.6665C9.50016 17.7498 8.75016 16.9998 7.8335 16.9998ZM2.8335 3.6665V5.33317H4.50016L7.50016 11.6582L6.37516 13.6998C6.24183 13.9332 6.16683 14.2082 6.16683 14.4998C6.16683 15.4165 6.91683 16.1665 7.8335 16.1665H17.8335V14.4998H8.1835C8.06683 14.4998 7.97516 14.4082 7.97516 14.2915L8.00016 14.1915L8.75016 12.8332H14.9585C15.5835 12.8332 16.1335 12.4915 16.4168 11.9748L19.4002 6.5665C19.4668 6.44984 19.5002 6.30817 19.5002 6.1665C19.5002 5.70817 19.1252 5.33317 18.6668 5.33317H6.34183L5.5585 3.6665H2.8335ZM16.1668 16.9998C15.2502 16.9998 14.5085 17.7498 14.5085 18.6665C14.5085 19.5832 15.2502 20.3332 16.1668 20.3332C17.0835 20.3332 17.8335 19.5832 17.8335 18.6665C17.8335 17.7498 17.0835 16.9998 16.1668 16.9998Z" fill="white"/>
</g>
<defs>
<clipPath id="clip0_2750_767">
<rect width="20" height="20" fill="white" transform="translate(2 2)"/>
</clipPath>
</defs>
</svg>
